<svg width="20" height="20" viewBox="0 0 20 20" fill="none" xmlns="http://www.w3.org/2000/svg">
<rect width="20" height="20" transform="matrix(-1 0 0 1 20 0)" fill="white" fill-opacity="0.01"/>
<path fill-rule="evenodd" clip-rule="evenodd" d="M3.75004 7.91663C3.75004 4.46485 6.54826 1.66663 10 1.66663C13.4518 1.66663 16.25 4.46485 16.25 7.91663C16.25 10.0565 15.0838 11.7969 13.8752 13.0325C12.6581 14.2769 11.3019 15.1097 10.7046 15.4471C10.2647 15.6955 9.73536 15.6955 9.29547 15.4471C8.69813 15.1097 7.34193 14.2769 6.12486 13.0325C4.91632 11.7969 3.75004 10.0565 3.75004 7.91663ZM11.6667 7.91663C11.6667 8.8371 10.9205 9.58329 10 9.58329C9.07957 9.58329 8.33337 8.8371 8.33337 7.91663C8.33337 6.99615 9.07957 6.24996 10 6.24996C10.9205 6.24996 11.6667 6.99615 11.6667 7.91663Z" fill="#52AA24"/>
<path d="M6.06663 15.4665C6.50847 15.3377 6.76222 14.8751 6.6334 14.4333C6.50457 13.9914 6.04195 13.7377 5.60011 13.8665C5.04339 14.0288 4.53269 14.2372 4.14227 14.5048C3.77883 14.7539 3.33337 15.1882 3.33337 15.8329C3.33337 16.486 3.78988 16.9231 4.15865 17.1722C4.55651 17.441 5.07745 17.6502 5.64632 17.8127C6.79539 18.141 8.3344 18.3329 10 18.3329C11.6657 18.3329 13.2047 18.141 14.3538 17.8127C14.9226 17.6502 15.4436 17.441 15.8414 17.1722C16.2102 16.9231 16.6667 16.486 16.6667 15.8329C16.6667 15.1882 16.2213 14.7539 15.8578 14.5048C15.4674 14.2372 14.9567 14.0288 14.4 13.8665C13.9581 13.7377 13.4955 13.9914 13.3667 14.4333C13.2379 14.8751 13.4916 15.3377 13.9334 15.4665C14.3508 15.5882 14.6507 15.7172 14.8428 15.8329C14.6439 15.9527 14.3313 16.0858 13.8959 16.2102C12.9337 16.4851 11.5561 16.6663 10 16.6663C8.44402 16.6663 7.06636 16.4851 6.10419 16.2102C5.6688 16.0858 5.35616 15.9527 5.15726 15.8329C5.34942 15.7172 5.64933 15.5882 6.06663 15.4665Z" fill="#52AA24"/>
</svg>
