<svg width="20" height="20" viewBox="0 0 20 20" fill="none" xmlns="http://www.w3.org/2000/svg">
<path d="M2.22222 2.77777C1.63285 2.77777 1.06762 3.0119 0.650874 3.42864C0.234126 3.84539 0 4.41062 0 4.99999L0 15C0 15.5894 0.234126 16.1546 0.650874 16.5713C1.06762 16.9881 1.63285 17.2222 2.22222 17.2222H6.66667V2.77777H2.22222Z" fill="#009A49"/>
<path d="M6.66667 2.77777H13.3333V17.2222H6.66667V2.77777Z" fill="#EEEEEE"/>
<path d="M17.7778 2.77777H13.3333V17.2222H17.7778C18.3671 17.2222 18.9324 16.9881 19.3491 16.5713C19.7659 16.1546 20 15.5894 20 15V4.99999C20 4.41062 19.7659 3.84539 19.3491 3.42864C18.9324 3.0119 18.3671 2.77777 17.7778 2.77777Z" fill="#009A49"/>
</svg>
