<svg width="24" height="13" viewBox="0 0 24 13" fill="none" xmlns="http://www.w3.org/2000/svg">
<path d="M17.5143 0C17.2049 0 16.9082 0.122917 16.6894 0.341709C16.4706 0.560501 16.3477 0.857247 16.3477 1.16667C16.3477 1.47609 16.4706 1.77283 16.6894 1.99162C16.9082 2.21042 17.2049 2.33333 17.5143 2.33333H19.3647L14.0143 7.68367L9.58917 3.2585C9.37039 3.03978 9.07369 2.91692 8.76434 2.91692C8.45498 2.91692 8.15829 3.03978 7.9395 3.2585L0.35617 10.8418C0.244741 10.9495 0.155862 11.0782 0.094718 11.2205C0.0335742 11.3629 0.00139017 11.516 4.40495e-05 11.6709C-0.00130207 11.8258 0.0282166 11.9794 0.0868776 12.1228C0.145539 12.2662 0.232167 12.3964 0.341709 12.506C0.45125 12.6155 0.581511 12.7021 0.72489 12.7608C0.868269 12.8195 1.0219 12.849 1.1768 12.8476C1.33171 12.8463 1.4848 12.8141 1.62714 12.753C1.76948 12.6918 1.89821 12.6029 2.00584 12.4915L8.76434 5.733L13.1895 10.1582C13.4083 10.3769 13.705 10.4998 14.0143 10.4998C14.3237 10.4998 14.6204 10.3769 14.8392 10.1582L21.0143 3.983V5.83333C21.0143 6.14275 21.1373 6.4395 21.356 6.65829C21.5748 6.87708 21.8716 7 22.181 7C22.4904 7 22.7872 6.87708 23.006 6.65829C23.2248 6.4395 23.3477 6.14275 23.3477 5.83333V1.16667C23.3477 0.857247 23.2248 0.560501 23.006 0.341709C22.7872 0.122917 22.4904 0 22.181 0H17.5143Z" fill="#52AA24"/>
</svg>
